<svg width="741" height="55" viewBox="0 0 741 55" fill="none" xmlns="http://www.w3.org/2000/svg">
<path d="M662.978 22.7045C641.227 34.5246 595.277 51.1819 585.48 23.2502C575.683 -4.68153 490.734 12.2503 449.483 24.2077C429.751 38.6803 381.963 64.1841 348.665 50.4182C315.368 36.6523 311.28 19.514 313.399 12.6656C316.505 4.1435 312.555 -7.72898 271.9 12.9578C221.081 38.8162 200.166 50.9638 118.492 26.5382C36.8176 2.11266 10.3147 1.79926 1.99449 27.3585" stroke="#0A8000"/>
<path d="M739.976 22.1624C718.225 33.9825 672.275 50.6398 662.478 22.7081C652.681 -5.22365 567.732 11.7082 526.481 23.6656C506.75 38.1382 458.961 63.642 425.663 49.8761C392.366 36.1102 388.278 18.9719 390.397 12.1235C393.504 3.60138 389.553 -8.2711 348.898 12.4157C298.079 38.2741 277.164 50.4216 195.49 25.9961C113.816 1.57054 87.3128 1.25715 78.9925 26.8163" stroke="#0A8000"/>
<path d="M78.9895 26.4192C59.3902 36.0574 16.5516 49.6594 1.9914 26.9613" stroke="#0A8000"/>
<line x1="0.989644" y1="27.4958" x2="739.982" y2="22.2926" stroke="black" stroke-dasharray="6 6"/>
</svg>
