<svg width="740" height="55" viewBox="0 0 740 55" fill="none" xmlns="http://www.w3.org/2000/svg">
<path d="M78 30.6028C99.8333 18.9362 145.9 2.60285 155.5 30.6028C165.1 58.6028 250.167 42.2695 291.5 30.6028C311.333 16.2695 359.3 -8.89713 392.5 5.10287C425.7 19.1029 429.667 36.2695 427.5 43.1028C424.333 51.6028 428.2 63.5028 469 43.1028C520 17.6028 541 5.60286 622.5 30.6028C704 55.6028 730.5 56.1028 739 30.6028" stroke="#0A8000"/>
<path d="M1 30.6028C22.8333 18.9362 68.9 2.60285 78.5 30.6028C88.1 58.6028 173.167 42.2695 214.5 30.6028C234.333 16.2695 282.3 -8.89713 315.5 5.10287C348.7 19.1029 352.667 36.2695 350.5 43.1028C347.333 51.6028 351.2 63.5028 392 43.1028C443 17.6028 464 5.60286 545.5 30.6028C627 55.6028 653.5 56.1028 662 30.6028" stroke="#0A8000"/>
<path d="M662 31C681.667 21.5 724.6 8.20001 739 31" stroke="#0A8000"/>
<line x1="740.006" y1="30.4726" x2="0.995056" y2="30.4726" stroke="black" stroke-dasharray="6 6"/>
</svg>
